# Blender v2.91.0 OBJ File: 'shapeGen.blend'
# www.blender.org
mtllib 0.mtl
o RING
v -0.897718 -2.500000 2.500000
v -0.897718 2.500000 2.500000
v -0.897718 -2.500000 -2.500000
v -0.897718 2.500000 -2.500000
v 0.897718 -2.500000 2.500000
v 0.897718 2.500000 2.500000
v 0.897718 -2.500000 -2.500000
v 0.897718 2.500000 -2.500000
v 0.897718 -1.651994 -1.651994
v -0.897718 -1.651994 -1.651994
v -0.897718 1.651994 -1.651994
v 0.897718 1.651994 -1.651994
v -0.897718 -1.651994 1.651994
v 0.897718 -1.651994 1.651994
v 0.897718 1.651994 1.651994
v -0.897718 1.651994 1.651994
vn 0.0000 0.0000 -1.0000
vn 0.0000 0.0000 1.0000
vn 0.0000 -1.0000 0.0000
vn 0.0000 1.0000 0.0000
vn -1.0000 -0.0000 0.0000
vn 1.0000 0.0000 0.0000
usemtl None
s off
f 4//1 7//1 3//1
f 6//2 1//2 5//2
f 7//3 1//3 3//3
f 4//4 6//4 8//4
f 10//2 12//2 11//2
f 15//1 13//1 16//1
f 14//4 10//4 13//4
f 16//3 12//3 15//3
f 4//5 16//5 2//5
f 3//5 1//5 10//5
f 8//6 15//6 12//6
f 5//6 9//6 14//6
f 4//1 8//1 7//1
f 6//2 2//2 1//2
f 7//3 5//3 1//3
f 4//4 2//4 6//4
f 10//2 9//2 12//2
f 15//1 14//1 13//1
f 14//4 9//4 10//4
f 16//3 11//3 12//3
f 4//5 11//5 16//5
f 10//5 11//5 4//5
f 1//5 2//5 16//5
f 1//5 16//5 13//5
f 10//5 4//5 3//5
f 1//5 13//5 10//5
f 9//6 7//6 12//6
f 7//6 8//6 12//6
f 8//6 6//6 15//6
f 15//6 6//6 14//6
f 6//6 5//6 14//6
f 5//6 7//6 9//6
